<svg xmlns="http://www.w3.org/2000/svg" width="320" height="320" viewBox="0 0 320 320">
  <rect width="320" height="320" fill="#ffffff"/>
  <rect x="14" y="14" width="292" height="292" rx="18" fill="#f8fafc" stroke="#e2e8f0"/>
  <g fill="#0f172a" opacity="0.9">
    <rect x="48" y="48" width="70" height="70" rx="10"/>
    <rect x="202" y="48" width="70" height="70" rx="10"/>
    <rect x="48" y="202" width="70" height="70" rx="10"/>
  </g>
  <g fill="#2563eb" opacity="0.95">
    <rect x="142" y="72" width="18" height="18" rx="4"/>
    <rect x="168" y="72" width="18" height="18" rx="4"/>
    <rect x="142" y="98" width="18" height="18" rx="4"/>
    <rect x="168" y="98" width="18" height="18" rx="4"/>
    <rect x="142" y="124" width="18" height="18" rx="4"/>
    <rect x="168" y="150" width="18" height="18" rx="4"/>
    <rect x="194" y="124" width="18" height="18" rx="4"/>
    <rect x="220" y="150" width="18" height="18" rx="4"/>
    <rect x="142" y="176" width="18" height="18" rx="4"/>
    <rect x="168" y="202" width="18" height="18" rx="4"/>
    <rect x="194" y="202" width="18" height="18" rx="4"/>
    <rect x="220" y="202" width="18" height="18" rx="4"/>
    <rect x="142" y="228" width="18" height="18" rx="4"/>
    <rect x="168" y="228" width="18" height="18" rx="4"/>
    <rect x="194" y="228" width="18" height="18" rx="4"/>
  </g>
  <text x="160" y="304" text-anchor="middle" font-family="ui-sans-serif, system-ui" font-size="12" fill="#64748b">微信二维码占位</text>
</svg>
